<svg width="138" height="58" viewBox="0 0 138 58" fill="none" xmlns="http://www.w3.org/2000/svg">
<path fill-rule="evenodd" clip-rule="evenodd" d="M137.16 47.64C137.16 50.2043 136.224 52.4304 134.387 54.2671C132.141 56.5135 129.176 57.6 125.6 57.6C122.072 57.6 119.136 56.5104 116.893 54.2671C115.056 52.4304 114.12 50.2043 114.12 47.64C114.12 45.1221 115.061 42.9246 116.893 41.0929C119.136 38.8496 122.072 37.76 125.6 37.76C129.176 37.76 132.141 38.8465 134.387 41.0929C136.219 42.9246 137.16 45.1221 137.16 47.64ZM133.68 53.56C135.333 51.9067 136.16 49.9333 136.16 47.64C136.16 45.4 135.333 43.4533 133.68 41.8C131.653 39.7733 128.96 38.76 125.6 38.76C122.293 38.76 119.627 39.7733 117.6 41.8C115.947 43.4533 115.12 45.4 115.12 47.64C115.12 49.9333 115.947 51.9067 117.6 53.56C119.627 55.5867 122.293 56.6 125.6 56.6C128.96 56.6 131.653 55.5867 133.68 53.56Z" fill="white" fill-opacity="0.3"/>
<path fill-rule="evenodd" clip-rule="evenodd" d="M78.6585 1.19995H107.095L90.2869 15.9562C90.8969 15.8788 91.508 15.84 92.1201 15.84C97.0021 15.84 101.081 17.4498 104.273 20.6991L104.278 20.7038C107.9 24.4391 109.68 29.2896 109.68 35.16C109.68 40.9561 107.72 45.9262 103.803 50.0114C98.8346 55.2027 92.155 57.76 83.8801 57.76C75.4511 57.76 68.6411 55.2066 63.5654 50.0193L63.564 50.0179C59.2569 45.5989 57.1201 40.0064 57.1201 33.32C57.1201 26.5973 60.0703 20.2795 65.8031 14.3829L65.8042 14.3818L78.6585 1.19995ZM88.8191 17.2448C88.6942 17.2755 88.5692 17.3079 88.4443 17.342C88.2108 17.4058 87.9774 17.4757 87.7439 17.5516C87.656 17.5802 87.5681 17.6096 87.4801 17.64L87.4001 17.16L104.44 2.19995H79.0801L66.5201 15.08C60.9201 20.84 58.1201 26.92 58.1201 33.32C58.1201 39.7733 60.1735 45.1066 64.2801 49.32C69.1335 54.28 75.6668 56.76 83.8801 56.76C91.9335 56.76 98.3335 54.28 103.08 49.32C106.813 45.4266 108.68 40.7066 108.68 35.16C108.68 29.5066 106.973 24.92 103.56 21.4C100.573 18.36 96.7601 16.84 92.1201 16.84C91.0198 16.84 89.9195 16.9749 88.8191 17.2448ZM79.1692 38.7155L79.1749 38.7217C80.2561 39.8929 81.6115 40.48 83.3201 40.48C84.8345 40.48 86.1469 39.9835 87.2995 38.9692C88.3855 38.0136 88.9601 36.7042 88.9601 34.92C88.9601 33.0637 88.3024 31.5784 86.9761 30.3877C85.8048 29.3581 84.5683 28.88 83.2401 28.88C81.8239 28.88 80.6536 29.3282 79.6728 30.2199L79.6542 30.2368L79.6349 30.2527C78.4378 31.236 77.7601 32.7767 77.7601 35.08C77.7601 36.5443 78.231 37.7326 79.1635 38.7095L79.1692 38.7155ZM87.6401 29.64C89.1868 31.0266 89.9601 32.7866 89.9601 34.92C89.9601 36.9466 89.2935 38.5466 87.9601 39.72C86.6268 40.8933 85.0801 41.48 83.3201 41.48C81.3468 41.48 79.7201 40.7866 78.4401 39.4C77.3201 38.2266 76.7601 36.7866 76.7601 35.08C76.7601 32.5733 77.5068 30.7066 79.0001 29.48C80.1735 28.4133 81.5868 27.88 83.2401 27.88C84.8401 27.88 86.3068 28.4666 87.6401 29.64Z" fill="white" fill-opacity="0.3"/>
<path fill-rule="evenodd" clip-rule="evenodd" d="M50.9175 40.3286L50.9164 40.3322C49.694 44.3327 47.579 47.8107 44.5805 50.7537L44.5787 50.7554C39.7846 55.438 33.6841 57.76 26.36 57.76C19.0359 57.76 12.9354 55.438 8.14126 50.7554L8.13953 50.7537C5.14102 47.8107 3.02602 44.3327 1.80365 40.3322L1.80253 40.3286C0.604816 36.3543 0 32.5235 0 28.84C0 25.2088 0.605172 21.4307 1.80306 17.5097C3.02462 13.4573 5.13894 9.95134 8.13953 7.00632L8.14126 7.00462C12.9354 2.32199 19.0359 0 26.36 0C33.6841 0 39.7846 2.32199 44.5787 7.00462L44.5805 7.00631C47.5811 9.9514 49.6955 13.4575 50.917 17.51C52.1148 21.4308 52.72 25.2088 52.72 28.84C52.72 32.5235 52.1152 36.3543 50.9175 40.3286ZM49.96 17.8C48.7867 13.9067 46.76 10.5467 43.88 7.72C39.2933 3.24 33.4533 1 26.36 1C19.2667 1 13.4267 3.24 8.84 7.72C5.96 10.5467 3.93333 13.9067 2.76 17.8C1.58667 21.64 1 25.32 1 28.84C1 32.4133 1.58667 36.1467 2.76 40.04C3.93333 43.88 5.96 47.2133 8.84 50.04C13.4267 54.52 19.2667 56.76 26.36 56.76C33.4533 56.76 39.2933 54.52 43.88 50.04C46.76 47.2133 48.7867 43.88 49.96 40.04C51.1333 36.1467 51.72 32.4133 51.72 28.84C51.72 25.32 51.1333 21.64 49.96 17.8ZM23.5993 18.9339L23.5918 18.9407C21.6012 20.7462 20.48 23.871 20.48 28.6C20.48 33.2716 21.5992 36.372 23.5918 38.1793L23.5993 38.1861L23.6066 38.193C24.379 38.9224 25.2792 39.28 26.36 39.28C27.2498 39.28 28.1452 38.9439 29.065 38.1643C31.0403 36.4136 32.16 33.3263 32.16 28.6C32.16 23.8804 31.0433 20.7587 29.0601 18.9516C28.142 18.1749 27.2482 17.84 26.36 17.84C25.2792 17.84 24.379 18.1976 23.6066 18.927L23.5993 18.9339ZM29.72 18.2C32.0133 20.28 33.16 23.7467 33.16 28.6C33.16 33.4533 32.0133 36.8933 29.72 38.92C28.6533 39.8267 27.5333 40.28 26.36 40.28C25.0267 40.28 23.88 39.8267 22.92 38.92C20.6267 36.84 19.48 33.4 19.48 28.6C19.48 23.7467 20.6267 20.28 22.92 18.2C23.88 17.2933 25.0267 16.84 26.36 16.84C27.5333 16.84 28.6533 17.2933 29.72 18.2Z" fill="white" fill-opacity="0.3"/>
</svg>
