<svg width="140" height="58" viewBox="0 0 140 58" fill="none" xmlns="http://www.w3.org/2000/svg">
<path fill-rule="evenodd" clip-rule="evenodd" d="M50.9175 40.3286L50.9164 40.3322C49.694 44.3327 47.579 47.8107 44.5805 50.7537L44.5787 50.7554C39.7846 55.438 33.6841 57.76 26.36 57.76C19.0359 57.76 12.9354 55.438 8.14126 50.7554L8.13953 50.7537C5.14102 47.8107 3.02602 44.3327 1.80365 40.3322L1.80253 40.3286C0.604816 36.3543 0 32.5235 0 28.84C0 25.2088 0.605172 21.4307 1.80306 17.5097C3.02462 13.4573 5.13894 9.95134 8.13953 7.00632L8.14126 7.00462C12.9354 2.32199 19.0359 0 26.36 0C33.6841 0 39.7846 2.32199 44.5787 7.00462L44.5805 7.00631C47.5811 9.9514 49.6955 13.4575 50.917 17.51C52.1148 21.4308 52.72 25.2088 52.72 28.84C52.72 32.5235 52.1152 36.3543 50.9175 40.3286ZM49.96 17.8C48.7867 13.9067 46.76 10.5467 43.88 7.72C39.2933 3.24 33.4533 1 26.36 1C19.2667 1 13.4267 3.24 8.84 7.72C5.96 10.5467 3.93333 13.9067 2.76 17.8C1.58667 21.64 1 25.32 1 28.84C1 32.4133 1.58667 36.1467 2.76 40.04C3.93333 43.88 5.96 47.2133 8.84 50.04C13.4267 54.52 19.2667 56.76 26.36 56.76C33.4533 56.76 39.2933 54.52 43.88 50.04C46.76 47.2133 48.7867 43.88 49.96 40.04C51.1333 36.1467 51.72 32.4133 51.72 28.84C51.72 25.32 51.1333 21.64 49.96 17.8ZM23.5993 18.9339L23.5918 18.9407C21.6012 20.7462 20.48 23.871 20.48 28.6C20.48 33.2716 21.5992 36.372 23.5918 38.1793L23.5993 38.1861L23.6066 38.193C24.379 38.9224 25.2792 39.28 26.36 39.28C27.2498 39.28 28.1452 38.9439 29.065 38.1643C31.0403 36.4136 32.16 33.3263 32.16 28.6C32.16 23.8804 31.0433 20.7587 29.0601 18.9516C28.142 18.1749 27.2482 17.84 26.36 17.84C25.2792 17.84 24.379 18.1976 23.6066 18.927L23.5993 18.9339ZM29.72 18.2C32.0133 20.28 33.16 23.7467 33.16 28.6C33.16 33.4533 32.0133 36.8933 29.72 38.92C28.6533 39.8267 27.5333 40.28 26.36 40.28C25.0267 40.28 23.88 39.8267 22.92 38.92C20.6267 36.84 19.48 33.4 19.48 28.6C19.48 23.7467 20.6267 20.28 22.92 18.2C23.88 17.2933 25.0267 16.84 26.36 16.84C27.5333 16.84 28.6533 17.2933 29.72 18.2ZM87.42 56.56H66.22V20.4807L57.98 21.1207V1.2H87.42V56.56ZM67.22 19.4V55.56H86.42V2.2H58.98V20.04L67.22 19.4ZM122.981 47.64C122.981 50.2043 122.044 52.4304 120.208 54.2671C117.961 56.5135 114.997 57.6 111.421 57.6C107.893 57.6 104.957 56.5104 102.714 54.2671C100.877 52.4304 99.9406 50.2043 99.9406 47.64C99.9406 45.1221 100.882 42.9246 102.714 41.0929C104.957 38.8496 107.893 37.76 111.421 37.76C114.997 37.76 117.961 38.8465 120.208 41.0929C122.039 42.9246 122.981 45.1221 122.981 47.64ZM119.501 53.56C121.154 51.9067 121.981 49.9333 121.981 47.64C121.981 45.4 121.154 43.4533 119.501 41.8C117.474 39.7733 114.781 38.76 111.421 38.76C108.114 38.76 105.447 39.7733 103.421 41.8C101.767 43.4533 100.941 45.4 100.941 47.64C100.941 49.9333 101.767 51.9067 103.421 53.56C105.447 55.5867 108.114 56.6 111.421 56.6C114.781 56.6 117.474 55.5867 119.501 53.56Z" fill="white" fill-opacity="0.3"/>
</svg>
