<svg width="140" height="58" viewBox="0 0 140 58" fill="none" xmlns="http://www.w3.org/2000/svg">
<path fill-rule="evenodd" clip-rule="evenodd" d="M52.9175 40.3286L52.9164 40.3322C51.694 44.3327 49.579 47.8107 46.5805 50.7537L46.5787 50.7554C41.7846 55.438 35.6841 57.76 28.36 57.76C21.0359 57.76 14.9354 55.438 10.1413 50.7554L10.1395 50.7537C7.14102 47.8107 5.02602 44.3327 3.80365 40.3322L3.80253 40.3286C2.60482 36.3543 2 32.5235 2 28.84C2 25.2088 2.60517 21.4307 3.80306 17.5097C5.02462 13.4573 7.13894 9.95134 10.1395 7.00632L10.1413 7.00462C14.9354 2.32199 21.0359 0 28.36 0C35.6841 0 41.7846 2.32199 46.5787 7.00462L46.5805 7.00631C49.5811 9.9514 51.6955 13.4575 52.917 17.51C54.1148 21.4308 54.72 25.2088 54.72 28.84C54.72 32.5235 54.1152 36.3543 52.9175 40.3286ZM51.96 17.8C50.7867 13.9067 48.76 10.5467 45.88 7.72C41.2933 3.24 35.4533 1 28.36 1C21.2667 1 15.4267 3.24 10.84 7.72C7.96 10.5467 5.93333 13.9067 4.76 17.8C3.58667 21.64 3 25.32 3 28.84C3 32.4133 3.58667 36.1467 4.76 40.04C5.93333 43.88 7.96 47.2133 10.84 50.04C15.4267 54.52 21.2667 56.76 28.36 56.76C35.4533 56.76 41.2933 54.52 45.88 50.04C48.76 47.2133 50.7867 43.88 51.96 40.04C53.1333 36.1467 53.72 32.4133 53.72 28.84C53.72 25.32 53.1333 21.64 51.96 17.8ZM25.5993 18.9339L25.5918 18.9407C23.6012 20.7462 22.48 23.871 22.48 28.6C22.48 33.2716 23.5992 36.372 25.5918 38.1793L25.5993 38.1861L25.6066 38.193C26.379 38.9224 27.2792 39.28 28.36 39.28C29.2498 39.28 30.1452 38.9439 31.065 38.1643C33.0403 36.4136 34.16 33.3263 34.16 28.6C34.16 23.8804 33.0433 20.7587 31.0601 18.9516C30.142 18.1749 29.2482 17.84 28.36 17.84C27.2792 17.84 26.379 18.1976 25.6066 18.927L25.5993 18.9339ZM31.72 18.2C34.0133 20.28 35.16 23.7467 35.16 28.6C35.16 33.4533 34.0133 36.8933 31.72 38.92C30.6533 39.8267 29.5333 40.28 28.36 40.28C27.0267 40.28 25.88 39.8267 24.92 38.92C22.6267 36.84 21.48 33.4 21.48 28.6C21.48 23.7467 22.6267 20.28 24.92 18.2C25.88 17.2933 27.0267 16.84 28.36 16.84C29.5333 16.84 30.6533 17.2933 31.72 18.2ZM62.1714 17.68C62.5743 12.086 65.118 7.75264 69.8025 4.68C73.5358 2.22667 78.5758 1 84.9225 1C92.7092 1 98.6292 2.92 102.683 6.76C105.616 9.53333 107.083 12.8133 107.083 16.6C107.083 19.6933 106.229 22.2 104.523 24.12C103.535 25.15 102.479 25.9556 101.354 26.5366C101.125 26.6547 100.894 26.7634 100.66 26.863C100.614 26.8823 100.568 26.9013 100.523 26.92V27.32C100.585 27.3387 100.647 27.3578 100.709 27.3773C100.948 27.4526 101.184 27.5338 101.415 27.6207C103.173 28.2803 104.716 29.2734 106.043 30.6C108.229 32.7867 109.323 35.6667 109.323 39.24C109.323 43.7733 107.776 47.5333 104.683 50.52C100.523 54.68 94.0425 56.76 85.2425 56.76C76.0692 56.76 69.3758 54.6 65.1625 50.28C61.965 47.0825 60.2417 43.0425 59.9928 38.16C59.976 37.8305 59.9659 37.4972 59.9625 37.16H79.4825C79.4825 39.1867 80.0958 40.76 81.3225 41.88C82.2292 42.7867 83.4558 43.24 85.0025 43.24C86.5492 43.24 87.8025 42.76 88.7625 41.8C89.7225 40.84 90.2025 39.64 90.2025 38.2C90.2025 36.8133 89.7758 35.6133 88.9225 34.6C87.6213 33.2058 85.8746 32.6823 83.6825 33.0294C83.3589 33.0806 83.0255 33.1508 82.6825 33.24V22.2C83.0282 22.2838 83.3615 22.3409 83.6825 22.3712C84.9958 22.4952 86.1025 22.1714 87.0025 21.4C87.8558 20.7067 88.2825 19.6133 88.2825 18.12C88.2825 17.0533 87.9092 16.1733 87.1625 15.48C86.5758 14.8933 85.7225 14.6 84.6025 14.6C83.6425 14.6 82.8425 14.92 82.2025 15.56C81.5907 16.1718 81.2441 16.9239 81.1625 17.8163C81.1374 18.0909 81.1374 18.3788 81.1625 18.68H62.1225C62.1314 18.3423 62.1477 18.009 62.1714 17.68ZM88.174 35.2637C87 34.0191 85.3418 33.5818 82.9341 34.2078L81.6825 34.5332V20.9286L82.9181 21.2282C84.4456 21.5985 85.5322 21.3432 86.3517 20.6407L86.3617 20.6322L86.3719 20.6239C86.9152 20.1825 87.2825 19.4268 87.2825 18.12C87.2825 17.3167 87.0144 16.7071 86.4821 16.2128L86.4685 16.2002L86.4554 16.1871C86.1144 15.8461 85.5527 15.6 84.6025 15.6C83.8899 15.6 83.3498 15.8269 82.9096 16.2671C82.3472 16.8296 82.0731 17.5657 82.159 18.597L82.2493 19.68H61.0958L61.1228 18.6537C61.2912 12.256 64.0119 7.28225 69.254 3.84382C73.2055 1.24739 78.4596 0 84.9225 0C92.8633 0 99.0685 1.95872 103.37 6.03405C106.488 8.98218 108.083 12.519 108.083 16.6C108.083 19.8857 107.171 22.6455 105.27 24.7844L105.257 24.7984L105.244 24.8119C104.404 25.6885 103.508 26.4225 102.555 27.0068C104.122 27.7032 105.522 28.6657 106.75 29.8929C109.153 32.2965 110.323 35.4461 110.323 39.24C110.323 44.0252 108.679 48.0481 105.383 51.2334C100.96 55.6521 94.1734 57.76 85.2425 57.76C75.9411 57.76 68.9314 55.5732 64.4512 50.9829C60.8353 47.3649 59.0182 42.7329 58.9625 37.17L58.9524 36.16H80.4825V37.16C80.4825 38.9725 81.0223 40.2518 81.9968 41.1415L82.0135 41.1568L82.0296 41.1729C82.7111 41.8544 83.6626 42.24 85.0025 42.24C86.3241 42.24 87.3095 41.8388 88.0554 41.0929C88.8156 40.3327 89.2025 39.3926 89.2025 38.2C89.2025 37.0463 88.8571 36.0836 88.174 35.2637ZM138.965 47.64C138.965 50.2043 138.029 52.4304 136.192 54.2671C133.946 56.5135 130.981 57.6 127.405 57.6C123.877 57.6 120.941 56.5104 118.698 54.2671C116.861 52.4304 115.925 50.2043 115.925 47.64C115.925 45.1221 116.866 42.9246 118.698 41.0929C120.941 38.8496 123.877 37.76 127.405 37.76C130.981 37.76 133.946 38.8465 136.192 41.0929C138.024 42.9246 138.965 45.1221 138.965 47.64ZM135.485 53.56C137.138 51.9067 137.965 49.9333 137.965 47.64C137.965 45.4 137.138 43.4533 135.485 41.8C133.458 39.7733 130.765 38.76 127.405 38.76C124.098 38.76 121.432 39.7733 119.405 41.8C117.752 43.4533 116.925 45.4 116.925 47.64C116.925 49.9333 117.752 51.9067 119.405 53.56C121.432 55.5867 124.098 56.6 127.405 56.6C130.765 56.6 133.458 55.5867 135.485 53.56Z" fill="white" fill-opacity="0.3"/>
</svg>
