<svg width="140" height="58" viewBox="0 0 140 58" fill="none" xmlns="http://www.w3.org/2000/svg">
<path fill-rule="evenodd" clip-rule="evenodd" d="M138.16 47.64C138.16 50.2043 137.224 52.4304 135.387 54.2671C133.141 56.5135 130.176 57.6 126.6 57.6C123.072 57.6 120.136 56.5104 117.893 54.2671C116.056 52.4304 115.12 50.2043 115.12 47.64C115.12 45.1221 116.061 42.9246 117.893 41.0929C120.136 38.8496 123.072 37.76 126.6 37.76C130.176 37.76 133.141 38.8465 135.387 41.0929C137.219 42.9246 138.16 45.1221 138.16 47.64ZM134.68 53.56C136.333 51.9067 137.16 49.9333 137.16 47.64C137.16 45.4 136.333 43.4533 134.68 41.8C132.653 39.7733 129.96 38.76 126.6 38.76C123.293 38.76 120.627 39.7733 118.6 41.8C116.947 43.4533 116.12 45.4 116.12 47.64C116.12 49.9333 116.947 51.9067 118.6 53.56C120.627 55.5867 123.293 56.6 126.6 56.6C129.96 56.6 132.653 55.5867 134.68 53.56Z" fill="white" fill-opacity="0.3"/>
<path fill-rule="evenodd" clip-rule="evenodd" d="M79.6585 1.19995H108.095L91.2869 15.9562C91.8969 15.8788 92.508 15.84 93.1201 15.84C98.0021 15.84 102.081 17.4498 105.273 20.6991L105.278 20.7038C108.9 24.4391 110.68 29.2896 110.68 35.16C110.68 40.9561 108.72 45.9262 104.803 50.0114C99.8346 55.2027 93.155 57.76 84.8801 57.76C76.4511 57.76 69.6411 55.2066 64.5654 50.0193L64.564 50.0179C60.2569 45.5989 58.1201 40.0064 58.1201 33.32C58.1201 26.5973 61.0703 20.2795 66.8031 14.3829L66.8042 14.3818L79.6585 1.19995ZM89.8191 17.2448C89.6942 17.2755 89.5692 17.3079 89.4443 17.342C89.2108 17.4058 88.9774 17.4757 88.7439 17.5516C88.656 17.5802 88.5681 17.6096 88.4801 17.64L88.4001 17.16L105.44 2.19995H80.0801L67.5201 15.08C61.9201 20.84 59.1201 26.92 59.1201 33.32C59.1201 39.7733 61.1735 45.1066 65.2801 49.32C70.1335 54.28 76.6668 56.76 84.8801 56.76C92.9335 56.76 99.3335 54.28 104.08 49.32C107.813 45.4266 109.68 40.7066 109.68 35.16C109.68 29.5066 107.973 24.92 104.56 21.4C101.573 18.36 97.7601 16.84 93.1201 16.84C92.0198 16.84 90.9195 16.9749 89.8191 17.2448ZM80.1692 38.7155L80.1749 38.7217C81.2561 39.8929 82.6115 40.48 84.3201 40.48C85.8345 40.48 87.1469 39.9835 88.2995 38.9692C89.3855 38.0136 89.9601 36.7042 89.9601 34.92C89.9601 33.0637 89.3024 31.5784 87.9761 30.3877C86.8048 29.3581 85.5683 28.88 84.2401 28.88C82.8239 28.88 81.6536 29.3282 80.6728 30.2199L80.6542 30.2368L80.6349 30.2527C79.4378 31.236 78.7601 32.7767 78.7601 35.08C78.7601 36.5443 79.231 37.7326 80.1635 38.7095L80.1692 38.7155ZM88.6401 29.64C90.1868 31.0266 90.9601 32.7866 90.9601 34.92C90.9601 36.9466 90.2935 38.5466 88.9601 39.72C87.6268 40.8933 86.0801 41.48 84.3201 41.48C82.3468 41.48 80.7201 40.7866 79.4401 39.4C78.3201 38.2266 77.7601 36.7866 77.7601 35.08C77.7601 32.5733 78.5068 30.7066 80.0001 29.48C81.1735 28.4133 82.5868 27.88 84.2401 27.88C85.8401 27.88 87.3068 28.4666 88.6401 29.64Z" fill="white" fill-opacity="0.3"/>
<path fill-rule="evenodd" clip-rule="evenodd" d="M51.9175 40.3286L51.9164 40.3322C50.694 44.3327 48.579 47.8107 45.5805 50.7537L45.5787 50.7554C40.7846 55.438 34.6841 57.76 27.36 57.76C20.0359 57.76 13.9354 55.438 9.14126 50.7554L9.13953 50.7537C6.14102 47.8107 4.02602 44.3327 2.80365 40.3322L2.80253 40.3286C1.60482 36.3543 1 32.5235 1 28.84C1 25.2088 1.60517 21.4307 2.80306 17.5097C4.02462 13.4573 6.13894 9.95134 9.13953 7.00632L9.14126 7.00462C13.9354 2.32199 20.0359 0 27.36 0C34.6841 0 40.7846 2.32199 45.5787 7.00462L45.5805 7.00631C48.5811 9.9514 50.6955 13.4575 51.917 17.51C53.1148 21.4308 53.72 25.2088 53.72 28.84C53.72 32.5235 53.1152 36.3543 51.9175 40.3286ZM50.96 17.8C49.7867 13.9067 47.76 10.5467 44.88 7.72C40.2933 3.24 34.4533 1 27.36 1C20.2667 1 14.4267 3.24 9.84 7.72C6.96 10.5467 4.93333 13.9067 3.76 17.8C2.58667 21.64 2 25.32 2 28.84C2 32.4133 2.58667 36.1467 3.76 40.04C4.93333 43.88 6.96 47.2133 9.84 50.04C14.4267 54.52 20.2667 56.76 27.36 56.76C34.4533 56.76 40.2933 54.52 44.88 50.04C47.76 47.2133 49.7867 43.88 50.96 40.04C52.1333 36.1467 52.72 32.4133 52.72 28.84C52.72 25.32 52.1333 21.64 50.96 17.8ZM24.5993 18.9339L24.5918 18.9407C22.6012 20.7462 21.48 23.871 21.48 28.6C21.48 33.2716 22.5992 36.372 24.5918 38.1793L24.5993 38.1861L24.6066 38.193C25.379 38.9224 26.2792 39.28 27.36 39.28C28.2498 39.28 29.1452 38.9439 30.065 38.1643C32.0403 36.4136 33.16 33.3263 33.16 28.6C33.16 23.8804 32.0433 20.7587 30.0601 18.9516C29.142 18.1749 28.2482 17.84 27.36 17.84C26.2792 17.84 25.379 18.1976 24.6066 18.927L24.5993 18.9339ZM30.72 18.2C33.0133 20.28 34.16 23.7467 34.16 28.6C34.16 33.4533 33.0133 36.8933 30.72 38.92C29.6533 39.8267 28.5333 40.28 27.36 40.28C26.0267 40.28 24.88 39.8267 23.92 38.92C21.6267 36.84 20.48 33.4 20.48 28.6C20.48 23.7467 21.6267 20.28 23.92 18.2C24.88 17.2933 26.0267 16.84 27.36 16.84C28.5333 16.84 29.6533 17.2933 30.72 18.2Z" fill="white" fill-opacity="0.3"/>
</svg>
