<svg width="140" height="58" viewBox="0 0 140 58" fill="none" xmlns="http://www.w3.org/2000/svg">
<path fill-rule="evenodd" clip-rule="evenodd" d="M52.9175 40.3286L52.9164 40.3322C51.694 44.3327 49.579 47.8107 46.5805 50.7537L46.5787 50.7554C41.7846 55.438 35.6841 57.76 28.36 57.76C21.0359 57.76 14.9354 55.438 10.1413 50.7554L10.1395 50.7537C7.14102 47.8107 5.02602 44.3327 3.80365 40.3322L3.80253 40.3286C2.60482 36.3543 2 32.5235 2 28.84C2 25.2088 2.60517 21.4307 3.80306 17.5097C5.02462 13.4573 7.13894 9.95134 10.1395 7.00632L10.1413 7.00462C14.9354 2.32199 21.0359 0 28.36 0C35.6841 0 41.7846 2.32199 46.5787 7.00462L46.5805 7.00631C49.5811 9.9514 51.6955 13.4575 52.917 17.51C54.1148 21.4308 54.72 25.2088 54.72 28.84C54.72 32.5235 54.1152 36.3543 52.9175 40.3286ZM51.96 17.8C50.7867 13.9067 48.76 10.5467 45.88 7.72C41.2933 3.24 35.4533 1 28.36 1C21.2667 1 15.4267 3.24 10.84 7.72C7.96 10.5467 5.93333 13.9067 4.76 17.8C3.58667 21.64 3 25.32 3 28.84C3 32.4133 3.58667 36.1467 4.76 40.04C5.93333 43.88 7.96 47.2133 10.84 50.04C15.4267 54.52 21.2667 56.76 28.36 56.76C35.4533 56.76 41.2933 54.52 45.88 50.04C48.76 47.2133 50.7867 43.88 51.96 40.04C53.1333 36.1467 53.72 32.4133 53.72 28.84C53.72 25.32 53.1333 21.64 51.96 17.8ZM25.5993 18.9339L25.5918 18.9407C23.6012 20.7462 22.48 23.871 22.48 28.6C22.48 33.2716 23.5992 36.372 25.5918 38.1793L25.5993 38.1861L25.6066 38.193C26.379 38.9224 27.2792 39.28 28.36 39.28C29.2498 39.28 30.1452 38.9439 31.065 38.1643C33.0403 36.4136 34.16 33.3263 34.16 28.6C34.16 23.8804 33.0433 20.7587 31.0601 18.9516C30.142 18.1749 29.2482 17.84 28.36 17.84C27.2792 17.84 26.379 18.1976 25.6066 18.927L25.5993 18.9339ZM31.72 18.2C34.0133 20.28 35.16 23.7467 35.16 28.6C35.16 33.4533 34.0133 36.8933 31.72 38.92C30.6533 39.8267 29.5333 40.28 28.36 40.28C27.0267 40.28 25.88 39.8267 24.92 38.92C22.6267 36.84 21.48 33.4 21.48 28.6C21.48 23.7467 22.6267 20.28 24.92 18.2C25.88 17.2933 27.0267 16.84 28.36 16.84C29.5333 16.84 30.6533 17.2933 31.72 18.2ZM64.0145 35.1956L69.0189 1.2H107.123V18.08H84.2125C84.0794 19.041 83.8825 19.9708 83.6212 20.8686C85.4527 19.8937 87.7515 19.44 90.4425 19.44C93.0104 19.44 95.6456 19.8863 98.3442 20.7666C101.086 21.6071 103.434 22.9321 105.368 24.7518L105.371 24.755C108.789 28.0014 110.483 32.1925 110.483 37.24C110.483 42.3352 108.488 46.7765 104.574 50.5224C99.4913 55.3817 92.6065 57.76 84.0425 57.76C80.1117 57.76 75.7952 57.2143 71.0985 56.1346C68.2731 55.4826 65.3203 54.5609 62.2424 53.3729L61.4953 53.0846L63.9792 36.4333L65.2195 37.0705C70.9438 40.0115 76.038 41.44 80.5225 41.44C82.9979 41.44 84.9586 41.104 86.448 40.481C87.4337 40.0472 88.0968 39.5443 88.5115 39.0081C88.9163 38.4849 89.1225 37.8825 89.1225 37.16C89.1225 36.3765 88.905 35.7233 88.4825 35.16C88.0516 34.5855 87.3674 34.0524 86.358 33.5946C84.5532 32.8158 82.1703 32.4 79.1625 32.4C74.5267 32.4 69.9957 33.1549 65.5654 34.6664L64.0145 35.1956ZM86.7625 32.68C89.0025 33.6933 90.1225 35.1867 90.1225 37.16C90.1225 39.0267 89.0292 40.44 86.8425 41.4C85.1892 42.0933 83.0825 42.44 80.5225 42.44C76.0836 42.44 71.1438 41.1042 65.7031 38.4326C65.3912 38.2795 65.0777 38.1219 64.7625 37.96L62.6025 52.44C65.6425 53.6133 68.5492 54.52 71.3225 55.16C75.9625 56.2267 80.2025 56.76 84.0425 56.76C92.4158 56.76 99.0292 54.44 103.883 49.8C107.616 46.2267 109.483 42.04 109.483 37.24C109.483 32.44 107.883 28.52 104.683 25.48C102.869 23.7733 100.656 22.52 98.0425 21.72C95.4292 20.8667 92.8958 20.44 90.4425 20.44C87.3035 20.44 84.8608 21.0814 83.1145 22.3641C82.7542 22.6288 82.4235 22.9207 82.1225 23.24H81.6425C81.6929 23.1362 81.7422 23.0319 81.7905 22.927C81.8946 22.7007 81.9937 22.4717 82.0878 22.24C82.1547 22.0753 82.2191 21.9093 82.281 21.7419C82.8176 20.2899 83.1648 18.736 83.3225 17.08H106.123V2.2H69.8825L65.2425 33.72C65.5958 33.5995 65.9498 33.4836 66.3044 33.3725C70.4998 32.0575 74.7858 31.4 79.1625 31.4C82.2558 31.4 84.7892 31.8267 86.7625 32.68ZM138.965 47.64C138.965 50.2043 138.029 52.4304 136.192 54.2671C133.946 56.5135 130.981 57.6 127.405 57.6C123.877 57.6 120.941 56.5104 118.698 54.2671C116.861 52.4304 115.925 50.2043 115.925 47.64C115.925 45.1221 116.866 42.9246 118.698 41.0929C120.941 38.8496 123.877 37.76 127.405 37.76C130.981 37.76 133.946 38.8465 136.192 41.0929C138.024 42.9246 138.965 45.1221 138.965 47.64ZM135.485 53.56C137.138 51.9067 137.965 49.9333 137.965 47.64C137.965 45.4 137.138 43.4533 135.485 41.8C133.458 39.7733 130.765 38.76 127.405 38.76C124.098 38.76 121.432 39.7733 119.405 41.8C117.752 43.4533 116.925 45.4 116.925 47.64C116.925 49.9333 117.752 51.9067 119.405 53.56C121.432 55.5867 124.098 56.6 127.405 56.6C130.765 56.6 133.458 55.5867 135.485 53.56Z" fill="white" fill-opacity="0.3"/>
</svg>
