<svg width="140" height="58" viewBox="0 0 140 58" fill="none" xmlns="http://www.w3.org/2000/svg">
<path fill-rule="evenodd" clip-rule="evenodd" d="M51.9175 40.3286L51.9164 40.3322C50.694 44.3327 48.579 47.8107 45.5805 50.7537L45.5787 50.7554C40.7846 55.438 34.6841 57.76 27.36 57.76C20.0359 57.76 13.9354 55.438 9.14126 50.7554L9.13953 50.7537C6.14102 47.8107 4.02602 44.3327 2.80365 40.3322L2.80253 40.3286C1.60482 36.3543 1 32.5235 1 28.84C1 25.2088 1.60517 21.4307 2.80306 17.5097C4.02462 13.4573 6.13894 9.95134 9.13953 7.00632L9.14126 7.00462C13.9354 2.32199 20.0359 0 27.36 0C34.6841 0 40.7846 2.32199 45.5787 7.00462L45.5805 7.00631C48.5811 9.9514 50.6955 13.4575 51.917 17.51C53.1148 21.4308 53.72 25.2088 53.72 28.84C53.72 32.5235 53.1152 36.3543 51.9175 40.3286ZM50.96 17.8C49.7867 13.9067 47.76 10.5467 44.88 7.72C40.2933 3.24 34.4533 1 27.36 1C20.2667 1 14.4267 3.24 9.84 7.72C6.96 10.5467 4.93333 13.9067 3.76 17.8C2.58667 21.64 2 25.32 2 28.84C2 32.4133 2.58667 36.1467 3.76 40.04C4.93333 43.88 6.96 47.2133 9.84 50.04C14.4267 54.52 20.2667 56.76 27.36 56.76C34.4533 56.76 40.2933 54.52 44.88 50.04C47.76 47.2133 49.7867 43.88 50.96 40.04C52.1333 36.1467 52.72 32.4133 52.72 28.84C52.72 25.32 52.1333 21.64 50.96 17.8ZM24.5993 18.9339L24.5918 18.9407C22.6012 20.7462 21.48 23.871 21.48 28.6C21.48 33.2716 22.5992 36.372 24.5918 38.1793L24.5993 38.1861L24.6066 38.193C25.379 38.9224 26.2792 39.28 27.36 39.28C28.2498 39.28 29.1452 38.9439 30.065 38.1643C32.0403 36.4136 33.16 33.3263 33.16 28.6C33.16 23.8804 32.0433 20.7587 30.0601 18.9516C29.142 18.1749 28.2482 17.84 27.36 17.84C26.2792 17.84 25.379 18.1976 24.6066 18.927L24.5993 18.9339ZM30.72 18.2C33.0133 20.28 34.16 23.7467 34.16 28.6C34.16 33.4533 33.0133 36.8933 30.72 38.92C29.6533 39.8267 28.5333 40.28 27.36 40.28C26.0267 40.28 24.88 39.8267 23.92 38.92C21.6267 36.84 20.48 33.4 20.48 28.6C20.48 23.7467 21.6267 20.28 23.92 18.2C24.88 17.2933 26.0267 16.84 27.36 16.84C28.5333 16.84 29.6533 17.2933 30.72 18.2ZM104.514 44.92L104.994 55.56H86.6738L87.3138 44.92L60.2738 45.48V31.48L82.1138 2.2H104.994V30.92L111.714 30.44V45.48L104.514 44.92ZM105.994 29.846V1.2H81.6121L59.2738 31.1481V46.5009L86.2505 45.9422L85.6118 56.56H106.04L105.564 46.0047L112.714 46.5608V29.366L105.994 29.846ZM85.3138 22.04L80.2738 28.52C79.7602 29.2261 79.2757 29.8163 78.8201 30.2906C78.5357 30.5868 78.2625 30.8378 78.0006 31.0436C77.985 31.0559 77.9693 31.068 77.9538 31.08L78.1138 31.48C78.1549 31.4693 78.196 31.4588 78.2372 31.4485C78.5946 31.3586 78.9535 31.2801 79.3142 31.2132C80.3667 31.0177 81.4333 30.92 82.5138 30.92H87.3938V23.24C87.3938 22.3324 87.508 21.3562 87.7365 20.3115C87.8571 19.7601 88.0095 19.1896 88.1938 18.6L87.7138 18.28C87.6904 18.329 87.6666 18.3782 87.6423 18.4277C87.5233 18.6696 87.3921 18.9177 87.2487 19.1718C87.1098 19.418 86.9594 19.6699 86.7977 19.9275C86.3795 20.5934 85.8848 21.2976 85.3138 22.04ZM86.4363 22.2138C86.329 22.358 86.219 22.5033 86.1064 22.6497L86.1031 22.654L81.0729 29.1213C80.8343 29.449 80.5986 29.7568 80.3658 30.0439C81.0761 29.9613 81.7921 29.92 82.5138 29.92H86.3938V23.24C86.3938 22.9047 86.408 22.5626 86.4363 22.2138ZM139.996 47.64C139.996 50.2043 139.06 52.4304 137.223 54.2671C134.977 56.5135 132.012 57.6 128.436 57.6C124.909 57.6 121.972 56.5104 119.729 54.2671C117.892 52.4304 116.956 50.2043 116.956 47.64C116.956 45.1221 117.897 42.9246 119.729 41.0929C121.972 38.8496 124.909 37.76 128.436 37.76C132.012 37.76 134.977 38.8465 137.223 41.0929C139.055 42.9246 139.996 45.1221 139.996 47.64ZM136.516 53.56C138.17 51.9067 138.996 49.9333 138.996 47.64C138.996 45.4 138.17 43.4533 136.516 41.8C134.49 39.7733 131.796 38.76 128.436 38.76C125.13 38.76 122.463 39.7733 120.436 41.8C118.783 43.4533 117.956 45.4 117.956 47.64C117.956 49.9333 118.783 51.9067 120.436 53.56C122.463 55.5867 125.13 56.6 128.436 56.6C131.796 56.6 134.49 55.5867 136.516 53.56Z" fill="white" fill-opacity="0.3"/>
</svg>
