<svg width="140" height="58" viewBox="0 0 140 58" fill="none" xmlns="http://www.w3.org/2000/svg">
<path fill-rule="evenodd" clip-rule="evenodd" d="M52.9175 40.3286L52.9164 40.3322C51.694 44.3327 49.579 47.8107 46.5805 50.7537L46.5787 50.7554C41.7846 55.438 35.6841 57.76 28.36 57.76C21.0359 57.76 14.9354 55.438 10.1413 50.7554L10.1395 50.7537C7.14102 47.8107 5.02602 44.3327 3.80365 40.3322L3.80253 40.3286C2.60482 36.3543 2 32.5235 2 28.84C2 25.2088 2.60517 21.4307 3.80306 17.5097C5.02462 13.4573 7.13894 9.95134 10.1395 7.00632L10.1413 7.00462C14.9354 2.32199 21.0359 0 28.36 0C35.6841 0 41.7846 2.32199 46.5787 7.00462L46.5805 7.00631C49.5811 9.9514 51.6955 13.4575 52.917 17.51C54.1148 21.4308 54.72 25.2088 54.72 28.84C54.72 32.5235 54.1152 36.3543 52.9175 40.3286ZM51.96 17.8C50.7867 13.9067 48.76 10.5467 45.88 7.72C41.2933 3.24 35.4533 1 28.36 1C21.2667 1 15.4267 3.24 10.84 7.72C7.96 10.5467 5.93333 13.9067 4.76 17.8C3.58667 21.64 3 25.32 3 28.84C3 32.4133 3.58667 36.1467 4.76 40.04C5.93333 43.88 7.96 47.2133 10.84 50.04C15.4267 54.52 21.2667 56.76 28.36 56.76C35.4533 56.76 41.2933 54.52 45.88 50.04C48.76 47.2133 50.7867 43.88 51.96 40.04C53.1333 36.1467 53.72 32.4133 53.72 28.84C53.72 25.32 53.1333 21.64 51.96 17.8ZM25.5993 18.9339L25.5918 18.9407C23.6012 20.7462 22.48 23.871 22.48 28.6C22.48 33.2716 23.5992 36.372 25.5918 38.1793L25.5993 38.1861L25.6066 38.193C26.379 38.9224 27.2792 39.28 28.36 39.28C29.2498 39.28 30.1452 38.9439 31.065 38.1643C33.0403 36.4136 34.16 33.3263 34.16 28.6C34.16 23.8804 33.0433 20.7587 31.0601 18.9516C30.142 18.1749 29.2482 17.84 28.36 17.84C27.2792 17.84 26.379 18.1976 25.6066 18.927L25.5993 18.9339ZM31.72 18.2C34.0133 20.28 35.16 23.7467 35.16 28.6C35.16 33.4533 34.0133 36.8933 31.72 38.92C30.6533 39.8267 29.5333 40.28 28.36 40.28C27.0267 40.28 25.88 39.8267 24.92 38.92C22.6267 36.84 21.48 33.4 21.48 28.6C21.48 23.7467 22.6267 20.28 24.92 18.2C25.88 17.2933 27.0267 16.84 28.36 16.84C29.5333 16.84 30.6533 17.2933 31.72 18.2ZM110.883 38.1098V56.56H54.3678L78.264 35.3674C81.2213 32.7798 83.6898 30.3095 85.6766 27.957C88.0226 25.1411 89.0425 22.8353 89.0425 21C89.0425 20.1021 88.7295 19.3798 88.0786 18.7695L88.0668 18.7585L88.0554 18.7471C87.4761 18.1678 86.6816 17.84 85.5625 17.84C84.3406 17.84 83.5091 18.2579 82.9225 19.04L82.9131 19.0525L82.9034 19.0647C82.2626 19.8657 81.8425 21.2929 81.8425 23.56V24.56H60.9799L60.9627 23.5775C60.9074 20.4259 61.3774 17.4277 62.3785 14.5901C63.3721 11.7205 64.7107 9.30727 66.4127 7.37838L66.4217 7.36812C68.6282 4.93531 71.4953 3.11831 74.9861 1.89826C78.4619 0.630211 82.1766 0 86.1225 0C94.0578 0 100.394 2.30525 104.998 7.02146L105.001 7.0242C108.486 10.6215 110.243 14.9233 110.243 19.88C110.243 25.4258 108.269 30.0916 104.33 33.8064C102.271 35.7585 99.6791 37.499 96.5703 39.0368C98.3844 38.7981 100.086 38.6393 101.673 38.5612L110.883 38.1098ZM93.1104 40.5801C92.5637 40.6753 92.0077 40.7768 91.4425 40.8846C91.1732 40.936 90.9018 40.9888 90.6282 41.043C90.5664 41.0553 90.5045 41.0676 90.4425 41.08V40.52C91.267 40.2272 92.0642 39.9249 92.8341 39.6132C97.3933 37.7673 100.996 35.5895 103.643 33.08C107.376 29.56 109.243 25.16 109.243 19.88C109.243 15.1867 107.589 11.1333 104.283 7.72C99.9092 3.24 93.8558 1 86.1225 1C82.2825 1 78.6825 1.61333 75.3225 2.84C71.9625 4.01333 69.2425 5.74667 67.1625 8.04C65.5625 9.85333 64.2825 12.1467 63.3225 14.92C62.4684 17.34 62.0153 19.8867 61.9633 22.56C61.963 22.5751 61.9628 22.5902 61.9625 22.6053C61.9569 22.9218 61.9569 23.24 61.9625 23.56H80.8425C80.8425 21.2133 81.2692 19.5067 82.1225 18.44C82.9225 17.3733 84.0692 16.84 85.5625 16.84C86.8958 16.84 87.9625 17.24 88.7625 18.04C89.6158 18.84 90.0425 19.8267 90.0425 21C90.0425 23.1867 88.8425 25.72 86.4425 28.6C84.4158 31 81.9092 33.5067 78.9225 36.12L57.0025 55.56H109.883V39.1601L101.723 39.56C99.1649 39.6858 96.2942 40.0258 93.1104 40.5801ZM138.965 47.64C138.965 50.2043 138.029 52.4304 136.192 54.2671C133.946 56.5135 130.981 57.6 127.405 57.6C123.877 57.6 120.941 56.5104 118.698 54.2671C116.861 52.4304 115.925 50.2043 115.925 47.64C115.925 45.1221 116.866 42.9246 118.698 41.0929C120.941 38.8496 123.877 37.76 127.405 37.76C130.981 37.76 133.946 38.8465 136.192 41.0929C138.024 42.9246 138.965 45.1221 138.965 47.64ZM135.485 53.56C137.138 51.9067 137.965 49.9333 137.965 47.64C137.965 45.4 137.138 43.4533 135.485 41.8C133.458 39.7733 130.765 38.76 127.405 38.76C124.098 38.76 121.432 39.7733 119.405 41.8C117.752 43.4533 116.925 45.4 116.925 47.64C116.925 49.9333 117.752 51.9067 119.405 53.56C121.432 55.5867 124.098 56.6 127.405 56.6C130.765 56.6 133.458 55.5867 135.485 53.56Z" fill="white" fill-opacity="0.3"/>
</svg>
