<svg width="58" height="47" viewBox="0 0 58 47" fill="none" xmlns="http://www.w3.org/2000/svg">
<path d="M24.1926 22.72C25.2726 22.14 25.9926 21.08 25.9926 19.64C25.9926 17.42 24.1926 16 20.8326 16H14.2726V30H21.2326C24.8326 30 26.7126 28.6 26.7126 26.2C26.7126 24.38 25.6926 23.2 24.1926 22.72ZM20.5526 18.04C22.3526 18.04 23.3726 18.68 23.3726 19.98C23.3726 21.26 22.3526 21.9 20.5526 21.9H16.8726V18.04H20.5526ZM21.0726 27.96H16.8726V23.92H21.0726C23.0326 23.92 24.0926 24.54 24.0926 25.94C24.0926 27.34 23.0326 27.96 21.0726 27.96Z" fill="#131620"/>
<path d="M43.6492 30L43.6292 16H41.4892L36.0292 25.28L30.4692 16H28.3292L28.3292 30H30.8092L30.8092 20.84L35.4092 28.4H36.5692L41.1692 20.72L41.1892 30H43.6492Z" fill="#131620"/>
<rect x="3" y="1" width="51" height="45" stroke="#131620" stroke-width="2"/>
<rect y="20" width="6" height="7" fill="#EDEDED"/>
<rect x="52" y="20" width="6" height="7" fill="#EDEDED"/>
</svg>
