<svg width="50" height="50" viewBox="0 0 50 50" fill="none" xmlns="http://www.w3.org/2000/svg">
<path fill-rule="evenodd" clip-rule="evenodd" d="M34.2576 34.244C34.2237 34.6067 34.08 34.9512 33.845 35.2328C33.6101 35.5145 33.2947 35.7205 32.9394 35.8242C32.5842 35.928 32.2057 35.9248 31.8524 35.8149C31.4991 35.7051 31.1872 35.4938 30.9572 35.2081C28.9362 33.628 25.7844 31.3553 25.7844 31.3553C25.7844 31.3553 23.5036 35.3029 23.0957 35.7075C22.9611 35.8191 22.8044 35.9017 22.6354 35.9502C22.4664 35.9987 22.2887 36.012 22.1141 35.9891C21.9396 35.9663 21.7719 35.9079 21.6216 35.8177C21.4714 35.7274 21.3419 35.6073 21.2416 35.4651C21.2197 35.4054 21.2014 35.3446 21.1862 35.2829L22.4468 28.9914L31.5692 20.183L19.1279 27.1615C19.1279 27.1615 13.5099 25.5103 12.6756 25.1877C12.4603 25.0722 12.2828 24.899 12.1636 24.6883C12.0444 24.4776 11.9884 24.2381 12.002 23.9974C12.0156 23.7567 12.0981 23.5247 12.2403 23.3283C12.3825 23.1319 12.5786 22.9791 12.8055 22.8876C13.9921 22.2934 34.9251 14.4346 35.6297 14.2323C36.3342 14.03 38.1884 13.5032 37.9844 15.2766C37.7805 17.05 34.4616 33.2708 34.2576 34.244Z" fill="white"/>
</svg>
