<svg width="50" height="50" viewBox="0 0 50 50" fill="none" xmlns="http://www.w3.org/2000/svg">
<path fill-rule="evenodd" clip-rule="evenodd" d="M25.5005 38C23.1436 37.994 20.8371 37.3164 18.8502 36.0463L13 38L14.9501 32.1374C13.4809 29.7885 12.8326 27.0169 13.1074 24.2586C13.3822 21.5003 14.5645 18.9118 16.4681 16.9001C18.3718 14.8884 20.8887 13.5677 23.6234 13.1457C26.358 12.7237 29.1553 13.2244 31.5749 14.5689C33.9946 15.9135 35.8994 18.0256 36.99 20.5732C38.0805 23.1208 38.2949 25.9593 37.5993 28.6423C36.9038 31.3252 35.3378 33.7005 33.1477 35.3945C30.9575 37.0884 28.2674 38.005 25.5005 38ZM28.2173 27.3735C29.0486 27.6457 29.8944 27.8715 30.7507 28.0497C30.8408 28.063 30.9272 28.0944 31.0048 28.1419C31.0825 28.1894 31.1499 28.2522 31.2028 28.3264C31.2557 28.4006 31.2932 28.4847 31.3129 28.5738C31.3326 28.6628 31.334 28.7549 31.3173 28.8446V29.3171C31.3256 29.4887 31.2938 29.6599 31.2244 29.817C31.1549 29.9742 31.0497 30.1129 30.9173 30.2222C30.5066 30.6399 30.0201 30.9753 29.484 31.2106C28.693 31.3053 27.891 31.2355 27.1281 31.0057C26.3653 30.7758 25.658 30.3909 25.0504 29.8748C24.2664 29.3487 23.5352 28.7475 22.8671 28.0798C22.2017 27.4066 21.5991 26.6738 21.0669 25.8907C20.5562 25.2814 20.1758 24.5736 19.9493 23.811C19.7228 23.0484 19.6552 22.2473 19.7503 21.4574C19.9856 20.9233 20.3191 20.4384 20.7337 20.0281C20.8393 19.8928 20.9767 19.7859 21.1339 19.7171C21.291 19.6483 21.4629 19.6198 21.6337 19.6341H22.117C22.2993 19.6088 22.4842 19.6571 22.6311 19.7682C22.778 19.8793 22.8746 20.0442 22.9003 20.2268C23.1503 21.2153 23.3337 21.93 23.5837 22.7315C23.6837 23.0654 23.5672 23.1473 23.3005 23.346C23.1338 23.4745 23.0005 23.568 22.8671 23.6682C22.7898 23.7018 22.7204 23.7512 22.6635 23.8134C22.6065 23.8756 22.5632 23.949 22.5365 24.0291C22.5098 24.1091 22.5003 24.1938 22.5084 24.2778C22.5165 24.3618 22.5421 24.4431 22.5837 24.5165C23.0093 25.3372 23.5541 26.0901 24.2004 26.7507C24.8588 27.3993 25.612 27.9438 26.4339 28.3654C26.5075 28.4063 26.5886 28.4315 26.6724 28.4394C26.7562 28.4473 26.8407 28.4376 26.9206 28.4111C27.0005 28.3846 27.0742 28.3418 27.1367 28.2853C27.1992 28.2288 27.2492 28.16 27.2838 28.0832C27.3838 27.9479 27.4672 27.8226 27.6006 27.6473C27.6215 27.5874 27.6544 27.5324 27.697 27.4854C27.7396 27.4384 27.7911 27.4005 27.8486 27.3739C27.9061 27.3472 27.9684 27.3325 28.0317 27.3304C28.095 27.3283 28.1581 27.339 28.2173 27.3618V27.3735Z" fill="white"/>
</svg>
